<svg xmlns="http://www.w3.org/2000/svg" viewBox="0 0 512 512">
  <!-- Fondo abismo -->
  <rect x="0" y="0" width="512" height="512" rx="112" fill="#070B14"/>
  <g fill="none" stroke="#00E5A0" stroke-linecap="round">
    <!-- Troncales desde los vértices -->
    <g stroke-width="16" opacity="0.9">
      <path d="M 256 186 L 256 116"/>
      <path d="M 316.6 221 L 377.2 186"/>
      <path d="M 316.6 291 L 377.2 326"/>
      <path d="M 256 326 L 256 396"/>
      <path d="M 195.4 291 L 135.8 326"/>
      <path d="M 195.4 221 L 135.8 186"/>
    </g>
    <!-- Sub-ramas -->
    <g stroke-width="13" opacity="0.75">
      <path d="M 256 116 L 233.5 77"/>
      <path d="M 256 116 L 278.5 77"/>
      <path d="M 377.2 186 L 399.7 147"/>
      <path d="M 377.2 186 L 422.2 186"/>
      <path d="M 377.2 326 L 422.2 326"/>
      <path d="M 377.2 326 L 399.7 365"/>
      <path d="M 256 396 L 278.5 435"/>
      <path d="M 256 396 L 233.5 435"/>
      <path d="M 135.8 326 L 113.3 365"/>
      <path d="M 135.8 326 L 90.8 326"/>
      <path d="M 135.8 186 L 90.8 186"/>
      <path d="M 135.8 186 L 113.3 147"/>
    </g>
  </g>
  <!-- Nodos en puntas -->
  <g fill="#00E5A0">
    <circle cx="233.5" cy="77" r="15"/>
    <circle cx="278.5" cy="77" r="15"/>
    <circle cx="399.7" cy="147" r="15"/>
    <circle cx="422.2" cy="186" r="15"/>
    <circle cx="422.2" cy="326" r="15"/>
    <circle cx="399.7" cy="365" r="15"/>
    <circle cx="278.5" cy="435" r="15"/>
    <circle cx="233.5" cy="435" r="15"/>
    <circle cx="113.3" cy="365" r="15"/>
    <circle cx="90.8" cy="326" r="15"/>
    <circle cx="90.8" cy="186" r="15"/>
    <circle cx="113.3" cy="147" r="15"/>
  </g>
  <!-- Núcleo hexagonal -->
  <polygon points="256,186 316.6,221 316.6,291 256,326 195.4,291 195.4,221"
           fill="#0D1321" stroke="#00E5A0" stroke-width="18"
           stroke-linejoin="round"/>
  <polygon points="256,226 281.9,241 281.9,271 256,286 230.1,271 230.1,241"
           fill="#00E5A0"/>
</svg>
